# xmcd
#
# Track frame offsets: 
#        150
#        15800
#        32151
#        54854
#        71829
#        95592
#        115873
#        136649
#        160312
#        195636
#        226759
#        254209
#        287247
#        302203
#        317678
#
# Disc length: 4406 seconds
#
# Revision: 2
# Processed by: cddbd v1.5.2PL0 Copyright (c) Steve Scherf et al.
# Submitted via: ExactAudioCopyFreeDBPlugin 1.0
#
DISCID=ca11340f
DTITLE=Various Artist - Blues Way - 5
DYEAR=1999
DGENRE=Blues
TTITLE0=B.B.King - Blues Boys Tune
TTITLE1=Dr John - I Like Ki Yoka
TTITLE2=Long John Hunter - Both Ends Of The Road
TTITLE3=Luther Allison - Low Down And Dirty
TTITLE4=Billy Boy Arnold - Sunny Road
TTITLE5=Bill Wyman - Tobacco Road
TTITLE6=Carey Bell - Hard Working Woman
TTITLE7=Junior Wells - Use Me
TTITLE8=Larry Carlton - The B.P. Blues
TTITLE9=Otis Rush  - Walking The Back Streets And Cruing
TTITLE10=Bernard Allison Group - Cadillac Assembly Line
TTITLE11=Snowy White And The White Flames - Midnight Blues
TTITLE12=Robben Ford - I Can't Stand The Rain
TTITLE13=Tony Joe White - Mojo Dollar
TTITLE14=Ry Cooder - Dark Was The Night
EXTD=
EXTT0=
EXTT1=
EXTT2=
EXTT3=
EXTT4=
EXTT5=
EXTT6=
EXTT7=
EXTT8=
EXTT9=
EXTT10=
EXTT11=
EXTT12=
EXTT13=
EXTT14=
PLAYORDER=
